<svg width="110" height="18" viewBox="0 0 110 18" fill="none" xmlns="http://www.w3.org/2000/svg">
<path d="M0.715909 2.89702V0.909091H11.1605V2.89702H7.11435V14H4.76207V2.89702H0.715909ZM18.2141 6.50213V8.40696H12.3207V6.50213H18.2141ZM20.7502 14V0.909091H25.6593C26.665 0.909091 27.5087 1.09659 28.1905 1.47159C28.8766 1.84659 29.3944 2.36222 29.7438 3.01847C30.0975 3.67045 30.2743 4.41193 30.2743 5.2429C30.2743 6.08239 30.0975 6.82812 29.7438 7.48011C29.3901 8.1321 28.8681 8.6456 28.1777 9.0206C27.4874 9.39134 26.6373 9.5767 25.6273 9.5767H22.3738V7.62713H25.3077C25.8958 7.62713 26.3773 7.52486 26.7523 7.32031C27.1273 7.11577 27.4043 6.83452 27.5833 6.47656C27.7665 6.11861 27.8581 5.70739 27.8581 5.2429C27.8581 4.77841 27.7665 4.36932 27.5833 4.01562C27.4043 3.66193 27.1252 3.38707 26.7459 3.19105C26.3709 2.99077 25.8873 2.89062 25.2949 2.89062H23.1216V14H20.7502ZM38.4897 9.87074V4.18182H40.8036V14H38.56V12.255H38.4577C38.2362 12.8047 37.8718 13.2543 37.3647 13.6037C36.8619 13.9531 36.2418 14.1278 35.5046 14.1278C34.8612 14.1278 34.2923 13.9851 33.7979 13.6996C33.3079 13.4098 32.9244 12.9901 32.6474 12.4403C32.3704 11.8864 32.2319 11.2173 32.2319 10.4332V4.18182H34.5458V10.0753C34.5458 10.6974 34.7163 11.1918 35.0572 11.5582C35.3981 11.9247 35.8455 12.108 36.3995 12.108C36.7404 12.108 37.0707 12.0249 37.3903 11.8587C37.7099 11.6925 37.9719 11.4453 38.1765 11.1172C38.3853 10.7848 38.4897 10.3693 38.4897 9.87074ZM43.2853 14V0.909091H45.5993V5.8054H45.6951C45.8145 5.56676 45.9828 5.31321 46.2001 5.04474C46.4174 4.77202 46.7115 4.53977 47.0822 4.34801C47.4529 4.15199 47.926 4.05398 48.5012 4.05398C49.2598 4.05398 49.9437 4.24787 50.5531 4.63565C51.1667 5.01918 51.6525 5.58807 52.0105 6.34233C52.3727 7.09233 52.5538 8.01278 52.5538 9.10369C52.5538 10.1818 52.377 11.098 52.0233 11.8523C51.6696 12.6065 51.188 13.1818 50.5787 13.5781C49.9693 13.9744 49.2789 14.1726 48.5076 14.1726C47.9451 14.1726 47.4785 14.0788 47.1078 13.8913C46.737 13.7038 46.4387 13.478 46.2129 13.2138C45.9913 12.9453 45.8187 12.6918 45.6951 12.4531H45.5609V14H43.2853ZM45.5545 9.09091C45.5545 9.72585 45.644 10.282 45.823 10.7592C46.0062 11.2365 46.2683 11.6094 46.6092 11.8778C46.9544 12.142 47.372 12.2741 47.862 12.2741C48.3734 12.2741 48.8017 12.1378 49.1468 11.8651C49.492 11.5881 49.752 11.2109 49.9267 10.7337C50.1056 10.2521 50.1951 9.70455 50.1951 9.09091C50.1951 8.48153 50.1078 7.94034 49.9331 7.46733C49.7583 6.99432 49.4984 6.62358 49.1532 6.35511C48.8081 6.08665 48.3777 5.95241 47.862 5.95241C47.3677 5.95241 46.948 6.08239 46.6028 6.34233C46.2576 6.60227 45.9956 6.96662 45.8166 7.43537C45.6419 7.90412 45.5545 8.45597 45.5545 9.09091ZM56.8349 0.909091V14H54.521V0.909091H56.8349ZM59.2143 14V4.18182H61.5282V14H59.2143ZM60.3777 2.78835C60.0112 2.78835 59.6958 2.6669 59.4316 2.42401C59.1674 2.17685 59.0353 1.88068 59.0353 1.53551C59.0353 1.18608 59.1674 0.889914 59.4316 0.647016C59.6958 0.399857 60.0112 0.276278 60.3777 0.276278C60.7484 0.276278 61.0637 0.399857 61.3237 0.647016C61.5879 0.889914 61.72 1.18608 61.72 1.53551C61.72 1.88068 61.5879 2.17685 61.3237 2.42401C61.0637 2.6669 60.7484 2.78835 60.3777 2.78835ZM71.6676 6.77699L69.5582 7.0071C69.4986 6.79403 69.3942 6.59375 69.245 6.40625C69.1001 6.21875 68.9041 6.06747 68.657 5.95241C68.4098 5.83736 68.1072 5.77983 67.7493 5.77983C67.2678 5.77983 66.8629 5.88423 66.5348 6.09304C66.2109 6.30185 66.0511 6.57244 66.0554 6.90483C66.0511 7.19034 66.1555 7.42259 66.3686 7.60156C66.5859 7.78054 66.9439 7.92756 67.4425 8.04261L69.1172 8.40057C70.0462 8.60085 70.7365 8.91832 71.1882 9.35298C71.6442 9.78764 71.8743 10.3565 71.8786 11.0597C71.8743 11.6776 71.6932 12.223 71.3352 12.696C70.9815 13.1648 70.4893 13.5312 69.8587 13.7955C69.228 14.0597 68.5036 14.1918 67.6854 14.1918C66.4837 14.1918 65.5163 13.9403 64.7834 13.4375C64.0504 12.9304 63.6136 12.2251 63.473 11.3217L65.7294 11.1044C65.8317 11.5476 66.049 11.8821 66.3814 12.108C66.7138 12.3338 67.1463 12.4467 67.679 12.4467C68.2287 12.4467 68.6697 12.3338 69.0021 12.108C69.3388 11.8821 69.5071 11.603 69.5071 11.2706C69.5071 10.9893 69.3984 10.7571 69.1811 10.5739C68.968 10.3906 68.6357 10.25 68.1839 10.152L66.5092 9.80043C65.5675 9.6044 64.8707 9.27415 64.419 8.80966C63.9673 8.34091 63.7436 7.74858 63.7479 7.03267C63.7436 6.42756 63.9077 5.90341 64.2401 5.46023C64.5767 5.01278 65.0433 4.66761 65.6399 4.42472C66.2408 4.17756 66.9332 4.05398 67.7173 4.05398C68.8679 4.05398 69.7734 4.29901 70.4339 4.78906C71.0987 5.27912 71.5099 5.94176 71.6676 6.77699ZM76.1005 8.24716V14H73.7866V0.909091H76.0494V5.85014H76.1644C76.3945 5.29616 76.7504 4.85937 77.2319 4.53977C77.7177 4.21591 78.3356 4.05398 79.0856 4.05398C79.7674 4.05398 80.3619 4.19673 80.869 4.48224C81.3761 4.76776 81.7681 5.18537 82.0451 5.73509C82.3264 6.2848 82.467 6.95597 82.467 7.74858V14H80.1531V8.10653C80.1531 7.44602 79.9826 6.93253 79.6417 6.56605C79.305 6.19531 78.832 6.00994 78.2227 6.00994C77.8136 6.00994 77.4471 6.09943 77.1232 6.27841C76.8036 6.45312 76.5522 6.70668 76.369 7.03906C76.19 7.37145 76.1005 7.77415 76.1005 8.24716ZM84.8256 14V4.18182H87.1396V14H84.8256ZM85.989 2.78835C85.6225 2.78835 85.3072 2.6669 85.043 2.42401C84.7788 2.17685 84.6467 1.88068 84.6467 1.53551C84.6467 1.18608 84.7788 0.889914 85.043 0.647016C85.3072 0.399857 85.6225 0.276278 85.989 0.276278C86.3597 0.276278 86.6751 0.399857 86.935 0.647016C87.1992 0.889914 87.3313 1.18608 87.3313 1.53551C87.3313 1.88068 87.1992 2.17685 86.935 2.42401C86.6751 2.6669 86.3597 2.78835 85.989 2.78835ZM91.8329 8.24716V14H89.519V4.18182H91.7306V5.85014H91.8457C92.0716 5.30043 92.4316 4.86364 92.926 4.53977C93.4245 4.21591 94.0403 4.05398 94.7733 4.05398C95.4508 4.05398 96.041 4.19886 96.5439 4.48864C97.051 4.77841 97.443 5.19815 97.72 5.74787C98.0012 6.29758 98.1397 6.96449 98.1355 7.74858V14H95.8216V8.10653C95.8216 7.45028 95.6511 6.93679 95.3102 6.56605C94.9735 6.19531 94.5069 6.00994 93.9103 6.00994C93.5055 6.00994 93.1454 6.09943 92.8301 6.27841C92.519 6.45312 92.274 6.70668 92.095 7.03906C91.9203 7.37145 91.8329 7.77415 91.8329 8.24716ZM104.758 17.8864C103.927 17.8864 103.213 17.7734 102.616 17.5476C102.02 17.326 101.54 17.0277 101.178 16.6527C100.816 16.2777 100.564 15.8622 100.424 15.4062L102.508 14.9013C102.601 15.093 102.738 15.2827 102.917 15.4702C103.096 15.6619 103.336 15.8196 103.639 15.9432C103.946 16.071 104.331 16.1349 104.796 16.1349C105.452 16.1349 105.996 15.9751 106.426 15.6555C106.856 15.3402 107.072 14.8203 107.072 14.0959V12.2358H106.956C106.837 12.4744 106.662 12.7195 106.432 12.9709C106.206 13.2223 105.906 13.4332 105.531 13.6037C105.16 13.7741 104.694 13.8594 104.131 13.8594C103.377 13.8594 102.693 13.6825 102.079 13.3288C101.47 12.9709 100.984 12.4382 100.622 11.7308C100.264 11.0192 100.085 10.1286 100.085 9.05895C100.085 7.98082 100.264 7.07102 100.622 6.32955C100.984 5.58381 101.472 5.01918 102.086 4.63565C102.699 4.24787 103.383 4.05398 104.138 4.05398C104.713 4.05398 105.186 4.15199 105.557 4.34801C105.932 4.53977 106.23 4.77202 106.452 5.04474C106.673 5.31321 106.841 5.56676 106.956 5.8054H107.084V4.18182H109.366V14.1598C109.366 14.9993 109.166 15.6939 108.765 16.2436C108.365 16.7933 107.817 17.2045 107.123 17.4773C106.428 17.75 105.64 17.8864 104.758 17.8864ZM104.777 12.044C105.267 12.044 105.684 11.9247 106.03 11.6861C106.375 11.4474 106.637 11.1044 106.816 10.657C106.995 10.2095 107.084 9.67259 107.084 9.04616C107.084 8.42827 106.995 7.88707 106.816 7.42259C106.641 6.9581 106.381 6.59801 106.036 6.34233C105.695 6.08239 105.275 5.95241 104.777 5.95241C104.261 5.95241 103.831 6.08665 103.486 6.35511C103.14 6.62358 102.881 6.99219 102.706 7.46094C102.531 7.92543 102.444 8.45384 102.444 9.04616C102.444 9.64702 102.531 10.1733 102.706 10.625C102.885 11.0724 103.147 11.4219 103.492 11.6733C103.841 11.9205 104.27 12.044 104.777 12.044Z" fill="#000"/>
</svg>

